# xmcd
#
# Track frame offsets:
#	150
#	14917
#	32679
#	46738
#	66568
#	87340
#	98517
#	119049
#
# Disc length: 1649 seconds
#
# Revision: 0
# Processed by: cddbd v1.5.1PL0 Copyright (c) Steve Scherf et al.
# Submitted via: dBpowerAMP V4.0
#
DISCID=6b066f08
DTITLE=Grand Junction - The Only One
DYEAR=2001
DGENRE=Bluegrass
TTITLE0=Darkness Darkness
TTITLE1=Never Say Goodbye
TTITLE2=Scotch and Soda
TTITLE3=Still On the Bottle
TTITLE4=Good Bye Jackson
TTITLE5=Drunk Again
TTITLE6=You Don't Know
TTITLE7=Pony Man
EXTD=good cd
EXTT0=
EXTT1=
EXTT2=
EXTT3=
EXTT4=
EXTT5=
EXTT6=
EXTT7=
PLAYORDER=
